<svg xmlns="http://www.w3.org/2000/svg" xmlns:xlink="http://www.w3.org/1999/xlink" width="500" height="500" x="0" y="0" enable-background="new 0 0 48 48" version="1.1" viewBox="0 0 48 48" xml:space="preserve"><g><circle cx="12.5" cy="40.5" r="3.5" fill="#8BC34A"/><circle cx="22.5" cy="37.5" r="4.5" fill="#8BC34A"/><circle cx="29.5" cy="30.5" r="5.5" fill="#8BC34A"/><circle cx="31.5" cy="20.5" r="6.5" fill="#8BC34A"/></g><g><path fill="#388E3C" d="M9,40.5c0-1.102,0.519-2.071,1.313-2.713C9.857,37.305,9.216,37,8.5,37C7.119,37,6,38.121,6,39.5 C6,40.881,7.119,42,8.5,42c0.273,0,0.53-0.055,0.776-0.136C9.099,41.445,9,40.984,9,40.5z"/><path fill="#388E3C" d="M18,37.5c0-0.519,0.105-1.01,0.267-1.473C18.177,36.021,18.091,36,18,36c-2.209,0-4,1.791-4,4s1.791,4,4,4 c1.524,0,2.834-0.863,3.509-2.117C19.502,41.43,18,39.644,18,37.5z"/><path fill="#388E3C" d="M29.5,36c-3.037,0-5.5-2.463-5.5-5.5c0-0.354,0.037-0.698,0.1-1.032c-0.686,0.311-1.318,0.762-1.825,1.386 l-0.16,0.197c-1.48,1.82-1.512,4.492,0.053,6.355c1.773,2.109,4.92,2.383,7.031,0.609l0.193-0.162 c0.231-0.197,0.47-0.435,0.668-0.679c0.335-0.413,0.57-0.869,0.755-1.34C30.393,35.938,29.954,36,29.5,36z"/><path fill="#388E3C" d="M31.5,27c-2.583,0-4.808-1.511-5.855-3.693C25.235,24.117,25,25.03,25,26c0,3.313,2.687,6,6,6s6-2.687,6-6 c0-0.586-0.088-1.151-0.244-1.686C35.574,25.939,33.663,27,31.5,27z"/><circle cx="32" cy="14" r="7" fill="#388E3C"/></g><g><circle cx="30" cy="13" r="2" fill="#FFEB3B"/><circle cx="36" cy="13" r="2" fill="#FFEB3B"/></g><g><circle cx="35" cy="13" r="1" fill="#4E342E"/><circle cx="29" cy="13" r="1" fill="#4E342E"/></g><g><path fill="#004D40" d="M41.895,23.553c-0.866-1.732-2.779-2.289-3.942-2.468c-0.062,0.688-0.229,1.343-0.488,1.953 c0.731,0.087,2.128,0.383,2.642,1.41C40.281,24.798,40.634,25,41.001,25c0.15,0,0.303-0.034,0.446-0.105 C41.941,24.647,42.142,24.047,41.895,23.553z"/><g><path fill="#004D40" d="M39.948,28.684c-0.593-1.779-1.826-2.752-2.989-3.246C36.977,25.624,37,25.809,37,26 c0,0.553-0.081,1.086-0.221,1.594c0.504,0.341,0.99,0.878,1.272,1.723C38.191,29.735,38.581,30,39,30 c0.104,0,0.211-0.017,0.316-0.052C39.84,29.774,40.123,29.208,39.948,28.684z"/></g><path fill="none" stroke="#004D40" stroke-linecap="round" stroke-width="2" d="M29,8c0,0,0-2,1-3"/><path fill="none" stroke="#004D40" stroke-linecap="round" stroke-width="2" d="M34,8c0,0,0-2,1-3"/><path fill="none" stroke="#004D40" stroke-linecap="round" stroke-width="2" d="M25,21c0,0-2-1-4,1"/><path fill="none" stroke="#004D40" stroke-linecap="round" stroke-width="2" d="M25,26c0,0-2-1-4,1"/><path fill="#004D40" d="M34,16c0,0-3,0-3.561,0.439c-0.652,0.512-0.586,1.535,0,2.121s1.535,0.586,2.121,0S34,16,34,16z"/></g></svg>