<svg xmlns="http://www.w3.org/2000/svg" xmlns:xlink="http://www.w3.org/1999/xlink" width="500" height="500" x="0" y="0" enable-background="new 0 0 48 48" version="1.1" viewBox="0 0 48 48" xml:space="preserve"><path fill="#FF5722" d="M24,2.033c1.912,0,4.036,14.827,5.111,15.682c1.107,0.879,16.482-0.371,16.889,1.066 c0.496,1.755-13.132,7.107-13.703,8.719c-0.571,1.612,6.652,15.755,5.293,16.471C36.229,44.685,25.713,34.17,24,34.066 c-1.712-0.104-12.201,10.896-13.589,9.904c-1.388-0.994,5.792-15.223,5.208-16.471S1.783,20.693,1.971,18.709 c0.123-1.303,15.779-0.115,16.833-0.994C20.239,16.519,22.088,2.033,24,2.033z"/><polygon fill="#DD2C00" points="18.833 17.688 23.813 19.438 29.063 17.688 29.188 23.188 32.297 27.5 27.352 29.329 24 34.002 20.717 29.438 15.646 27.521 18.625 23"/><circle cx="24" cy="25" r="2" fill="#FFECB3"/><g><circle cx="29" cy="23" r="1" fill="#FFF"/><circle cx="33" cy="22" r="1" fill="#FFF"/><circle cx="37" cy="21" r="1" fill="#FFF"/><circle cx="41" cy="20" r=".5" fill="#FFF"/><circle cx="24" cy="16" r="1" fill="#FFF"/><circle cx="24" cy="12" r="1" fill="#FFF"/><circle cx="24" cy="8" r=".5" fill="#FFF"/><circle cx="24" cy="20" r="1" fill="#FFF"/><circle cx="19" cy="23" r="1" fill="#FFF"/><circle cx="15" cy="22" r="1" fill="#FFF"/><circle cx="11" cy="21" r="1" fill="#FFF"/><circle cx="7" cy="20" r=".5" fill="#FFF"/><circle cx="19" cy="32" r="1" fill="#FFF"/><circle cx="17" cy="35" r="1" fill="#FFF"/><circle cx="15" cy="38" r=".5" fill="#FFF"/><circle cx="21" cy="29" r="1" fill="#FFF"/><circle cx="29" cy="32" r="1" fill="#FFF"/><circle cx="31" cy="35" r="1" fill="#FFF"/><circle cx="33" cy="38" r=".5" fill="#FFF"/><circle cx="27" cy="29" r="1" fill="#FFF"/><circle cx="29" cy="23" r="1" fill="#FFF8E1"/><circle cx="33" cy="22" r="1" fill="#FFF8E1"/><circle cx="37" cy="21" r="1" fill="#FFF8E1"/><circle cx="41" cy="20" r=".5" fill="#FFF8E1"/><circle cx="24" cy="16" r="1" fill="#FFF8E1"/><circle cx="24" cy="12" r="1" fill="#FFF8E1"/><circle cx="24" cy="8" r=".5" fill="#FFF8E1"/><circle cx="24" cy="20" r="1" fill="#FFF8E1"/><circle cx="19" cy="23" r="1" fill="#FFF8E1"/><circle cx="15" cy="22" r="1" fill="#FFF8E1"/><circle cx="11" cy="21" r="1" fill="#FFF8E1"/><circle cx="7" cy="20" r=".5" fill="#FFF8E1"/><circle cx="19" cy="32" r="1" fill="#FFF8E1"/><circle cx="17" cy="35" r="1" fill="#FFF8E1"/><circle cx="15" cy="38" r=".5" fill="#FFF8E1"/><circle cx="21" cy="29" r="1" fill="#FFF8E1"/><circle cx="29" cy="32" r="1" fill="#FFF8E1"/><circle cx="31" cy="35" r="1" fill="#FFF8E1"/><circle cx="33" cy="38" r=".5" fill="#FFF8E1"/><circle cx="27" cy="29" r="1" fill="#FFF8E1"/></g></svg>